<?xml version="1.0" encoding="UTF-8" standalone="no"?>
<svg
   height="20"
   width="20"
   version="1.1"
   id="svg51"
   sodipodi:docname="telegram.svg"
   inkscape:version="1.1.2 (0a00cf5339, 2022-02-04)"
   xmlns:inkscape="http://www.inkscape.org/namespaces/inkscape"
   xmlns:sodipodi="http://sodipodi.sourceforge.net/DTD/sodipodi-0.dtd"
   xmlns="http://www.w3.org/2000/svg"
   xmlns:svg="http://www.w3.org/2000/svg">
  <defs
     id="defs55">
    <inkscape:path-effect
       effect="powerclip"
       id="path-effect1700"
       is_visible="true"
       lpeversion="1"
       inverse="true"
       flatten="false"
       hide_clip="false"
       message="Use fill-rule evenodd on &lt;b&gt;fill and stroke&lt;/b&gt; dialog if no flatten result after convert clip to paths." />
    <inkscape:path-effect
       effect="powerclip"
       id="path-effect1380"
       is_visible="true"
       lpeversion="1"
       inverse="true"
       flatten="false"
       hide_clip="false"
       message="Use fill-rule evenodd on &lt;b&gt;fill and stroke&lt;/b&gt; dialog if no flatten result after convert clip to paths." />
    <clipPath
       clipPathUnits="userSpaceOnUse"
       id="clipPath1696">
      <path
         class="error"
         color="#bebebe"
         d="m 20.617133,5.9240429 a 5.2907368,5.2907368 0 0 1 -10.581473,0 5.2907367,5.2907367 0 1 1 10.581473,0 z"
         fill="#d33636"
         overflow="visible"
         style="display:none;isolation:auto;mix-blend-mode:normal;fill:#000000;fill-opacity:0.291941;stroke-width:1.32269;marker:none"
         id="path1698" />
      <path
         id="lpe_path-effect1700"
         style="display:inline;isolation:auto;mix-blend-mode:normal;fill:#000000;fill-opacity:0.291941;stroke-width:1.32269;marker:none"
         class="powerclip"
         d="M -3.3041393,-0.43107106 H 21.38212 V 21.930371 H -3.3041393 Z M 20.617133,5.9240429 a 5.2907367,5.2907367 0 1 0 -10.581473,0 5.2907368,5.2907368 0 0 0 10.581473,0 z" />
    </clipPath>
    <clipPath
       clipPathUnits="userSpaceOnUse"
       id="clipPath1696-7">
      <path
         class="error"
         color="#bebebe"
         d="m 20.617133,5.9240429 a 5.2907368,5.2907368 0 0 1 -10.581473,0 5.2907367,5.2907367 0 1 1 10.581473,0 z"
         fill="#d33636"
         overflow="visible"
         style="display:none;isolation:auto;mix-blend-mode:normal;fill:#000000;fill-opacity:0.291941;stroke-width:1.32269;marker:none"
         id="path1698-5" />
      <path
         id="lpe_path-effect1700-3"
         style="display:inline;isolation:auto;mix-blend-mode:normal;fill:#000000;fill-opacity:0.291941;stroke-width:1.32269;marker:none"
         class="powerclip"
         d="M -3.3041393,-0.43107106 H 21.38212 V 21.930371 H -3.3041393 Z M 20.617133,5.9240429 a 5.2907367,5.2907367 0 1 0 -10.581473,0 5.2907368,5.2907368 0 0 0 10.581473,0 z" />
    </clipPath>
    <inkscape:path-effect
       effect="powerclip"
       id="path-effect1700-5"
       is_visible="true"
       lpeversion="1"
       inverse="true"
       flatten="false"
       hide_clip="false"
       message="Use fill-rule evenodd on &lt;b&gt;fill and stroke&lt;/b&gt; dialog if no flatten result after convert clip to paths." />
  </defs>
  <sodipodi:namedview
     id="namedview53"
     pagecolor="#969696"
     bordercolor="#666666"
     borderopacity="1.0"
     inkscape:pageshadow="2"
     inkscape:pageopacity="0"
     inkscape:pagecheckerboard="true"
     showgrid="false"
     inkscape:snap-page="false"
     width="17px"
     viewbox-width="16"
     showguides="true"
     inkscape:lockguides="false"
     inkscape:guide-bbox="true"
     inkscape:object-nodes="false"
     inkscape:snap-grids="false"
     inkscape:zoom="32"
     inkscape:cx="9.515625"
     inkscape:cy="9.328125"
     inkscape:window-width="1920"
     inkscape:window-height="1019"
     inkscape:window-x="0"
     inkscape:window-y="30"
     inkscape:window-maximized="1"
     inkscape:current-layer="svg51">
    <inkscape:grid
       type="xygrid"
       id="grid173" />
    <sodipodi:guide
       position="0.69311999,16.960134"
       orientation="1,0"
       id="guide11878" />
    <sodipodi:guide
       position="-0.46753247,0.72727273"
       orientation="0,-1"
       id="guide11880" />
  </sodipodi:namedview>
  <path
     d="M 15.189878,4.7094229 2.1785376,9.7528506 c -0.523595,0.234851 -0.700693,0.7052114 -0.126576,0.9604624 l 3.337999,1.066262 8.0707704,-5.0136796 c 0.44066,-0.3147617 0.891818,-0.2308231 0.503616,0.1154095 L 7.0326316,13.18994 6.8148796,15.859749 c 0.201688,0.412237 0.570974,0.414138 0.806518,0.209259 l 1.9177664,-1.823998 3.284477,2.472188 c 0.762833,0.45397 1.17792,0.161006 1.342045,-0.671022 L 16.320021,5.7924758 C 16.543698,4.7682833 16.162242,4.3170252 15.189878,4.7094229 Z"
     id="path49-5"
     style="display:none;fill:#ffffff;fill-opacity:1;stroke-width:0.0286841"
     clip-path="url(#clipPath1696)"
     inkscape:path-effect="#path-effect1700"
     inkscape:original-d="M 15.189878,4.7094229 2.1785376,9.7528506 c -0.523595,0.234851 -0.700693,0.7052114 -0.126576,0.9604624 l 3.337999,1.066262 8.0707704,-5.0136796 c 0.44066,-0.3147617 0.891818,-0.2308231 0.503616,0.1154095 L 7.0326316,13.18994 6.8148796,15.859749 c 0.201688,0.412237 0.570974,0.414138 0.806518,0.209259 l 1.9177664,-1.823998 3.284477,2.472188 c 0.762833,0.45397 1.17792,0.161006 1.342045,-0.671022 L 16.320021,5.7924758 C 16.543698,4.7682833 16.162242,4.3170252 15.189878,4.7094229 Z"
     inkscape:label="masked airplane" />
  <path
     d="M 15.189878,4.7094229 2.1785376,9.7528506 c -0.523595,0.234851 -0.700693,0.7052114 -0.126576,0.9604624 l 3.337999,1.066262 8.0707704,-5.0136796 c 0.44066,-0.3147617 0.891818,-0.2308231 0.503616,0.1154095 L 7.0326316,13.18994 6.8148796,15.859749 c 0.201688,0.412237 0.570974,0.414138 0.806518,0.209259 l 1.9177664,-1.823998 3.284477,2.472188 c 0.762833,0.45397 1.17792,0.161006 1.342045,-0.671022 L 16.320021,5.7924758 C 16.543698,4.7682833 16.162242,4.3170252 15.189878,4.7094229 Z"
     id="path49-5-6"
     style="display:inline;fill:#ffffff;fill-opacity:1;stroke-width:0.0286841"
     clip-path="none"
     inkscape:label="airplane" />
  <path
     class="error"
     color="#bebebe"
     d="m 19.549462,5.9240429 a 4.223066,4.223066 0 0 1 -8.446132,0 4.223066,4.223066 0 1 1 8.446132,0 z"
     fill="#d33636"
     overflow="visible"
     style="display:none;isolation:auto;mix-blend-mode:normal;fill:#ed5353;fill-opacity:1;stroke-width:1.05577;marker:none"
     id="path4"
     inkscape:label="circle" />
</svg>
